<svg width="60" height="60" viewBox="0 0 60 60" fill="none" xmlns="http://www.w3.org/2000/svg">
<g id="Profile icon">
<path id="Vector" fill-rule="evenodd" clip-rule="evenodd" d="M29.9999 3.2962e-10C33.9396 -1.84668e-05 37.8407 0.775939 41.4804 2.28357C45.1202 3.7912 48.4274 6.00097 51.2132 8.78673C53.9989 11.5725 56.2087 14.8797 57.7164 18.5194C59.224 22.1592 60 26.0603 60 29.9999C60 46.5685 46.5685 60 29.9999 60C13.4315 60 0 46.5685 0 29.9999C0 13.4315 13.4315 3.2962e-10 29.9999 3.2962e-10ZM33 33H27C19.5729 33 13.1965 37.4982 10.4463 43.9193C14.7978 50.0211 21.9342 54 29.9999 54C38.0656 54 45.202 50.0211 49.5537 43.9188C46.8035 37.4982 40.4271 33 33 33ZM29.9999 8.99999C25.0294 8.99999 20.9999 13.0295 20.9999 18C20.9999 22.9705 25.0294 27 29.9999 27C34.9705 27 38.9999 22.9705 38.9999 18C38.9999 13.0295 34.9706 8.99999 29.9999 8.99999Z" fill="#C96448"/>
</g>
</svg>
