<svg width="57" height="61" viewBox="0 0 57 61" fill="none" xmlns="http://www.w3.org/2000/svg">
<g id="chef hat icon">
<path id="Vector" d="M28.6667 0C23.4499 0 18.852 3.44842 17.3783 8.45895C15.8162 7.75158 14.1657 7.36842 12.4562 7.36842C9.32946 7.36842 6.33076 8.61052 4.1198 10.8215C1.90885 13.0324 0.666748 16.0311 0.666748 19.1579C0.673731 21.7688 1.54505 24.3039 3.14466 26.3674C4.74427 28.4309 6.98213 29.9066 9.50885 30.5642L9.50885 51.5789H47.8246V30.5642C53.012 29.2084 56.6667 24.5221 56.6667 19.1579C56.6667 16.0311 55.4246 13.0324 53.2137 10.8215C51.0027 8.61052 48.004 7.36842 44.8773 7.36842C43.1678 7.36842 41.5173 7.75158 39.9552 8.45895C38.4815 3.44842 33.8836 0 28.6667 0ZM27.1931 26.5263L30.1404 26.5263L30.1404 47.1579H27.1931L27.1931 26.5263ZM18.351 32.4211H21.2983V47.1579H18.351V32.4211ZM36.0352 32.4211H38.9825V47.1579H36.0352V32.4211ZM9.50885 54.5263V57.4737C9.50885 58.2554 9.81938 59.0051 10.3721 59.5578C10.9249 60.1105 11.6745 60.4211 12.4562 60.4211H44.8773C45.659 60.4211 46.4086 60.1105 46.9614 59.5578C47.5141 59.0051 47.8246 58.2554 47.8246 57.4737V54.5263H9.50885Z" fill="#C96448"/>
</g>
</svg>
