<svg width="56" height="55" viewBox="0 0 56 55" fill="none" xmlns="http://www.w3.org/2000/svg">
<g id="List icon">
<path id="Vector" d="M18.6666 55H49.6041C51.1236 55 52.5808 54.3964 53.6552 53.322C54.7296 52.2475 55.3333 50.7903 55.3333 49.2708V44.6875C55.3333 43.168 54.7296 41.7108 53.6552 40.6364C52.5808 39.5619 51.1236 38.9583 49.6041 38.9583H18.6666V55ZM18.6666 34.375H49.6041C51.1236 34.375 52.5808 33.7714 53.6552 32.697C54.7296 31.6225 55.3333 30.1653 55.3333 28.6458V26.3542C55.3333 24.8347 54.7296 23.3775 53.6552 22.303C52.5808 21.2286 51.1236 20.625 49.6041 20.625H18.6666V34.375ZM14.0833 20.625V34.375H6.06242C4.54295 34.375 3.08571 33.7714 2.01129 32.697C0.936859 31.6225 0.333252 30.1653 0.333252 28.6458V26.3542C0.333252 24.8347 0.936859 23.3775 2.01129 22.303C3.08571 21.2286 4.54295 20.625 6.06242 20.625H14.0833ZM18.6666 16.0417H49.6041C51.1236 16.0417 52.5808 15.4381 53.6552 14.3636C54.7296 13.2892 55.3333 11.832 55.3333 10.3125V5.72917C55.3333 4.2097 54.7296 2.75246 53.6552 1.67803C52.5808 0.603607 51.1236 0 49.6041 0H18.6666V16.0417ZM14.0833 0V16.0417H6.06242C4.54295 16.0417 3.08571 15.4381 2.01129 14.3636C0.936859 13.2892 0.333252 11.832 0.333252 10.3125V5.72917C0.333252 4.2097 0.936859 2.75246 2.01129 1.67803C3.08571 0.603607 4.54295 0 6.06242 0H14.0833ZM14.0833 38.9583V55H6.06242C4.54295 55 3.08571 54.3964 2.01129 53.322C0.936859 52.2475 0.333252 50.7903 0.333252 49.2708V44.6875C0.333252 43.168 0.936859 41.7108 2.01129 40.6364C3.08571 39.5619 4.54295 38.9583 6.06242 38.9583H14.0833Z" fill="#C96448"/>
</g>
</svg>
